<svg xmlns="http://www.w3.org/2000/svg" width="94.4" height="66.8" viewBox="0 0 94.4 66.8">
  <path id="Accessories" d="M88.9,16.7H23.1c-5.1,0-8.9,4.9-7.3,9.4H13.7c-1.6.1-3.3-.2-4.8.2a7.847,7.847,0,0,0-3.8,2.1,8.823,8.823,0,0,0-2.3,6V64.3a3.683,3.683,0,0,0,1.7,3.1,47.616,47.616,0,0,1,6.2,5.7c.9.9,1.8,1.7,2.7,2.6,2,1.8,4.3,3.6,5.7,5.8a3.914,3.914,0,0,0,3.9,2c17.8,0,35.5-.1,53.3,0a8.411,8.411,0,0,0,8.4-8.2q-.3-20.4,0-40.8a8.408,8.408,0,0,0-8.3-8.3c-18.7.2-37.4.1-56.1.1H19c-.3,0-.5,0-.5-.5.3-3.7,2.1-5.4,5.9-5.4H88.5a5.164,5.164,0,0,1,5.2,5.2V65.5c0,3.2-1.3,4.7-4.4,5.2-1.1.2-1.8.9-1.7,1.9.1,1.1.8,1.6,2,1.6a7.73,7.73,0,0,0,7.6-7.9V25.1C97.1,20,93.8,16.7,88.9,16.7ZM81.4,34.4V74.9c0,3.2-1.9,4.9-5,4.9h-55c-1,0-1-.4-1-1,.1-2,.4-3.9.4-5.9a6.726,6.726,0,0,0-6.6-6.6c-2.3-.1-4.5,0-6.8,0-.9,0-1.2-.3-1.2-1.2V33.4a4.069,4.069,0,0,1,4.3-3.9H76.3C79.6,29.5,81.4,31.2,81.4,34.4Z" transform="translate(97.2 83.5) rotate(180)"/>
</svg>
